<?xml version="1.0" standalone="no"?>
<!DOCTYPE svg PUBLIC "-//W3C//DTD SVG 20010904//EN"
 "http://www.w3.org/TR/2001/REC-SVG-20010904/DTD/svg10.dtd">
<svg version="1.0" xmlns="http://www.w3.org/2000/svg"
 width="700.000000pt" height="700.000000pt" viewBox="0 0 700.000000 700.000000"
 preserveAspectRatio="xMidYMid meet">
<metadata>
Created by potrace 1.11, written by Peter Selinger 2001-2013
</metadata>
<g transform="translate(0.000000,700.000000) scale(0.100000,-0.100000)"
fill="#000000" stroke="none">
<path d="M3278 6996 c-1 -2 -41 -6 -88 -10 -87 -7 -105 -9 -225 -27 -116 -18
-123 -19 -192 -35 -154 -34 -203 -47 -313 -81 -260 -79 -581 -227 -815 -374
-695 -437 -1220 -1109 -1475 -1889 -28 -87 -75 -256 -85 -311 -3 -13 -11 -58
-20 -99 -29 -147 -35 -193 -52 -370 -15 -163 -8 -592 12 -711 2 -13 6 -46 9
-74 9 -78 23 -156 51 -285 31 -142 109 -393 175 -555 49 -123 173 -370 235
-468 30 -49 55 -90 55 -93 0 -3 4 -10 10 -17 5 -7 46 -64 91 -126 72 -103 179
-239 234 -297 243 -261 429 -421 682 -590 77 -52 145 -94 149 -94 4 0 15 -6
23 -14 29 -25 304 -161 431 -213 266 -109 579 -194 835 -228 22 -2 56 -7 75
-10 186 -26 697 -27 837 -1 17 3 104 16 148 21 321 41 827 219 1154 407 46 26
86 48 88 48 2 0 9 5 16 10 7 6 62 44 124 84 251 167 495 380 675 590 34 39 64
73 68 76 17 13 181 236 245 335 219 336 406 779 481 1140 16 79 54 301 59 350
4 33 9 71 11 85 9 47 11 525 3 605 -15 165 -21 220 -24 225 -2 3 -6 30 -10 60
-3 30 -10 71 -15 90 -5 19 -12 51 -15 70 -12 72 -65 269 -100 375 -264 786
-776 1437 -1476 1877 -118 74 -341 192 -439 232 -36 15 -80 34 -98 42 -110 50
-419 145 -587 179 -44 9 -89 19 -100 21 -11 2 -38 6 -60 9 -22 3 -51 7 -65 10
-13 2 -52 7 -86 11 -33 3 -74 8 -90 10 -33 5 -540 14 -546 10z m442 -816 c414
-37 785 -154 1140 -359 225 -131 475 -338 675 -560 l30 -33 -58 35 c-32 19
-97 49 -143 68 -96 37 -71 39 -256 -26 l-76 -27 -84 64 c-418 323 -939 498
-1468 492 -126 -1 -276 -10 -310 -19 -8 -2 -37 -6 -65 -10 -68 -8 -286 -55
-306 -66 -12 -6 -36 11 -97 71 -45 44 -92 82 -105 85 -27 7 -185 -48 -302
-105 -44 -22 -121 -71 -170 -108 l-90 -67 2 -49 c2 -33 10 -58 26 -80 96 -127
233 -393 266 -516 19 -70 24 -117 36 -348 3 -52 9 -121 14 -155 5 -34 12 -91
16 -127 3 -36 8 -81 10 -100 2 -19 7 -73 10 -120 4 -47 8 -98 10 -115 11 -94
19 -432 20 -795 0 -380 -2 -418 -18 -448 -21 -38 -89 -90 -173 -133 -57 -28
-67 -30 -135 -25 -41 4 -81 8 -89 11 -15 5 -101 135 -138 210 -30 60 -81 257
-97 373 -3 17 -7 47 -10 65 -24 171 -24 410 0 527 22 112 73 245 152 403 62
124 98 210 109 259 5 23 5 171 0 218 -24 212 -84 370 -180 473 -20 21 -30 26
-39 18 -10 -7 -18 -3 -32 15 -33 44 -92 68 -176 71 -66 2 -84 -2 -136 -26 -33
-16 -64 -34 -67 -40 -4 -6 -12 -11 -18 -11 -15 0 105 136 223 252 425 420 987
685 1589 751 140 15 381 18 510 7z m120 -1009 c138 -14 228 -48 421 -162 197
-116 321 -209 527 -394 19 -16 48 -37 65 -45 21 -10 42 -35 67 -81 39 -74 129
-189 240 -309 32 -35 130 -77 195 -85 146 -17 191 -20 305 -20 l126 0 64 42
c74 48 145 117 158 153 5 14 8 55 7 93 -1 37 1 67 5 67 9 0 73 -209 99 -320
19 -78 40 -201 56 -325 11 -82 14 -434 4 -520 -42 -379 -117 -644 -271 -960
-304 -622 -889 -1134 -1542 -1350 -123 -41 -206 -65 -206 -60 0 1 15 12 34 23
26 15 35 29 41 59 3 21 21 98 39 171 l32 134 96 37 c212 84 468 240 648 395
63 55 234 230 275 281 22 28 42 52 45 55 13 12 150 208 150 214 0 2 17 33 39
67 75 124 166 337 211 490 31 110 40 127 64 133 12 3 44 22 70 42 26 20 62 40
79 45 18 5 45 20 62 33 l29 24 1 296 c1 163 -1 299 -4 304 -3 4 -28 20 -55 35
-49 27 -70 29 -161 11 -11 -2 -33 -6 -50 -9 -16 -3 -43 -7 -60 -10 -16 -3
-114 -5 -217 -5 -127 0 -188 -4 -188 -11 0 -6 -33 7 -72 29 -40 22 -131 70
-203 107 -71 37 -166 87 -210 110 -44 23 -161 84 -260 135 -99 51 -193 101
-210 110 -16 10 -106 57 -200 106 -836 434 -762 392 -801 455 -91 151 -85 212
35 334 46 47 60 55 119 69 111 26 116 26 302 7z m-2837 -691 c-3 -12 -8 -19
-11 -16 -5 6 5 36 12 36 2 0 2 -9 -1 -20z m-28 -82 c-25 -84 -7 -207 41 -285
28 -44 91 -101 128 -114 29 -10 33 -16 26 -33 -7 -20 -13 -52 -26 -156 -3 -25
-9 -72 -14 -105 -9 -64 -5 -440 4 -490 7 -34 13 -73 21 -130 10 -64 41 -192
74 -296 99 -320 283 -637 515 -886 l76 -81 0 -163 0 -163 68 -66 c106 -104
223 -174 375 -226 74 -25 79 -25 152 22 95 60 163 158 226 324 35 93 65 127
263 305 48 44 93 85 100 91 49 46 334 239 441 298 17 9 37 21 45 26 13 9 205
117 320 182 174 97 396 236 732 459 56 37 58 37 134 33 186 -10 251 -63 300
-242 17 -60 17 -64 0 -100 -59 -124 -171 -259 -314 -379 -31 -27 -66 -56 -77
-66 -45 -41 -274 -188 -335 -215 -60 -27 -257 -86 -372 -112 -51 -11 -146 -25
-238 -35 -30 -3 -66 -8 -80 -10 -14 -2 -56 -9 -94 -15 -150 -24 -295 -77 -350
-128 -16 -15 -62 -78 -103 -140 -41 -62 -99 -139 -128 -170 -58 -63 -64 -77
-49 -107 6 -11 11 -36 12 -55 3 -52 22 -141 37 -170 7 -14 24 -34 37 -46 12
-11 38 -37 56 -57 39 -45 34 -46 -88 -17 -776 185 -1438 706 -1789 1407 -154
306 -250 639 -278 958 -19 211 -3 579 31 740 34 161 55 240 88 343 22 68 41
122 44 120 2 -2 -3 -25 -11 -50z m2619 -449 c198 -53 347 -233 359 -434 18
-288 -227 -529 -518 -509 -111 8 -193 41 -280 113 -214 177 -228 510 -30 702
80 77 167 123 259 136 23 3 42 6 44 8 6 5 130 -6 166 -16z"/>
</g>
</svg>
