<?xml version="1.0" encoding="UTF-8"?>
<svg width="75px" height="75px" viewBox="0 0 250 250" version="1.1" xmlns="http://www.w3.org/2000/svg" xmlns:xlink="http://www.w3.org/1999/xlink">
    <title>45rpm logo reverse</title>
    <g id="Page-1" stroke="none" stroke-width="1" fill="none" fill-rule="evenodd">
        <g id="45rpm-logo-reverse">
            <path d="M94.4380327,41.1803888 C95.6164261,42.1959194 97.1012191,43.7201882 98.8941548,45.7513649 C107.423556,43.4019988 115.945207,42.0559421 124.784665,42.0559421 C145.477145,42.0559421 164.428055,49.4327675 179.096171,61.6735661 L179.624474,62.1181183 L188.336633,58.9588969 C192.214078,60.3270139 194.905634,61.4847573 196.406402,62.4411259 C203.218401,66.7820937 207.071397,71.7140981 209.124613,75.3783878 C211.288886,79.2408761 213.386266,83.8735623 214.26855,89.8557574 C214.425196,90.9178717 214.420823,92.6824766 214.264204,95.1488422 C214.483599,95.9809506 214.431012,96.6589114 214.141187,97.3600421 C213.824977,98.1250024 213.236253,98.9111941 212.388261,99.7269553 C211.12571,100.941519 209.195616,102.308716 206.602559,103.834 C205.759199,104.242737 204.89826,104.253179 204.117833,104.253179 C200.699361,104.253179 195.92331,103.851146 189.790372,103.04953 L189.12808,102.962114 L185.299957,101.215081 C181.666828,96.9837436 179.15969,94.0241957 177.74247,92.2328145 C177.107547,91.4302652 176.641678,90.4549144 176.194412,89.5278058 C175.653843,88.4072938 175.132578,87.3566874 174.440292,86.6798287 C174.332409,86.5743493 173.809372,86.3571224 173.259803,86.1713905 C172.909312,86.052939 172.533617,85.9645206 172.461148,85.8950982 C166.275139,79.9691517 159.663742,74.5460368 149.745036,69.1070997 C142.2581,65.0016277 139.776411,64.9229692 137.231397,64.8272735 C136.260653,64.7907724 135.279609,64.7553502 133.981433,64.4750212 C131.594651,63.959618 128.200343,64.3548465 123.796892,65.7038782 C120.0346,68.9875938 118.218044,71.5581912 118.026895,73.4772602 C117.846381,75.2895554 118.963093,78.1247835 121.48916,81.9729762 L121.738021,82.3485439 L188.04604,116.973831 C188.421119,117.478586 188.78981,117.575063 189.157293,117.598037 L189.25749,117.602731 L191.746447,118.894356 L191.296248,117.639589 C197.37115,117.738245 201.653987,117.719837 204.144794,117.585335 C205.883246,117.491459 207.383943,117.186237 208.751625,116.881811 L209.158044,116.790719 L212.953129,116.206188 L216.516929,118.141827 L216.516929,139.065344 C215.4059,140.127115 214.214331,140.804637 212.936128,141.086036 C212.562566,141.168277 211.79071,141.706257 210.907661,142.365797 C209.690634,143.274781 208.206884,144.480105 207.439562,144.276287 L207.34362,144.24157 L206.631067,145.376415 C199.947135,172.292155 180.048752,194.068599 154.130734,203.59283 L153.343505,203.877686 L150.359779,216.482583 C146.252408,218.835829 141.56102,220.301915 136.287241,220.88557 C131.010983,221.4695 122.38569,221.481762 110.411647,220.926936 L109.689186,220.892966 L104.398423,215.110486 C104.071842,215.097406 103.824503,214.824838 103.585844,214.405159 C103.308253,213.917016 103.069239,213.228159 102.85976,212.342503 C102.523545,210.921024 102.239285,208.8748 102.004014,206.204377 L101.960475,205.696357 L101.401291,205.533463 C101.3893,205.11978 101.417189,204.753321 101.618869,204.57255 C104.955122,201.582183 106.767757,198.657469 108.309426,196.164129 C109.778867,193.787603 110.977297,191.805313 113.138758,190.606918 C118.138538,187.834854 124.367852,187.081613 131.830913,186.160647 C133.134552,185.999774 134.475607,185.834278 135.854157,185.652929 C138.104003,185.35696 141.703675,184.460206 146.652334,182.957735 C149.115612,182.448794 151.621163,181.489956 154.167832,180.077988 C156.690213,178.679486 160.038137,176.399148 164.210036,173.234453 C168.610112,169.598364 171.67143,166.752765 173.414514,164.688659 C175.165517,162.615174 176.98536,159.677666 178.868668,155.872401 C177.789781,150.719555 176.243881,147.636352 174.347052,146.222092 C172.453802,144.810501 168.981631,144.150654 163.890215,144.330385 C156.939707,148.90956 152.166945,152.074833 149.31067,153.910801 C143.470908,157.664507 137.411485,161.101811 131.557208,164.423019 C120.343937,170.784457 109.88453,176.728152 103.118911,183.629681 C102.279838,184.48561 101.293133,185.340931 100.288324,186.212768 C97.7605035,188.406069 95.1501899,190.712378 94.2879091,193.334512 C93.0789204,197.010961 90.1974062,203.202874 87.2409434,205.039731 C85.9141334,205.864081 84.6630842,206.636509 83.4876202,207.356958 C81.6576807,206.91638 79.3697969,206.061072 76.624606,204.796321 C72.3272219,202.816451 68.7326445,200.078784 65.8420892,196.581794 L65.4690529,196.121359 L65.4680198,184.640109 C50.0554736,169.533405 40.5085256,148.580168 40.5085256,125.420929 C40.5085256,119.673781 41.0963827,114.062463 42.2159342,108.642627 L42.4320672,107.628666 L42.5488552,107.104533 C42.3759962,107.086879 42.2051636,107.061975 42.036777,107.030079 C41.4781931,106.924271 40.9226958,106.73701 40.3879955,106.465102 C39.9627647,106.248862 39.5638518,105.98437 39.1991408,105.676853 C37.2891539,104.066388 35.9624794,101.957462 35.3066952,99.6572658 C34.6509103,97.357067 34.666017,94.8655972 35.439593,92.4900487 C37.3797872,86.5320256 39.0500247,82.1732161 40.4541035,79.4153134 C41.9244819,76.5271846 44.8335516,72.3773515 49.1746741,66.9618702 C50.5975134,65.1868966 52.5045281,63.9601185 54.5916039,63.3678383 C56.6786805,62.7755578 58.9458182,62.8177757 61.0889023,63.5807943 C62.4548965,64.0671397 63.5523844,64.9710626 64.2887577,66.0979525 L64.440991,66.3427708 L64.7670761,66.8944552 L65.2228872,66.443985 C65.3805433,66.2881763 65.5388204,66.1329823 65.6985643,65.9785372 C70.321429,70.5562842 72.6801479,78.0361246 72.8479546,88.3758093 C72.9025864,91.7420318 71.033033,95.4163748 68.9149742,99.645509 C66.614497,104.238879 64.0040613,109.46581 63.0277315,115.607859 C62.1192942,121.322799 62.133986,133.595579 66.0237964,146.555118 C66.8487397,149.303551 68.8125846,152.809035 71.9316295,157.064462 C75.8214475,157.73583 78.2467405,157.709931 79.5563979,157.239435 C81.0083137,156.717831 83.2788489,155.139201 84.5241567,154.267802 C84.7192687,154.131273 84.888485,154.01285 85.0242944,153.919844 C86.170121,153.135153 86.9873791,152.102873 87.4771754,150.823875 C87.951707,149.584736 88.1172086,148.107907 87.9594524,146.390442 C88.2283642,122.257832 87.3198575,102.893449 85.2367643,88.297055 C84.9323879,86.1642662 84.8528283,83.9072469 84.7731191,81.6738141 C84.6587743,78.4698999 84.5408171,75.3143683 83.7986589,72.6234359 C82.3474187,67.3614995 78.973986,60.8479116 73.6649076,53.0882228 L73.2417482,52.473027 L73.015056,49.9182738 C76.2237736,47.2599312 78.961986,45.3193193 81.2321916,44.1003414 C83.555529,42.8528346 87.1572094,41.4101207 92.0309416,39.7694788 C92.507574,39.6138835 93.3213739,40.2180607 94.4380327,41.1803888 Z M123.88993,107.882396 C118.955124,107.882396 114.487733,109.861527 111.253888,113.060616 C108.018077,116.261649 106.017159,120.683967 106.017159,125.568448 C106.017159,130.45293 108.018077,134.875248 111.253888,138.076281 C114.487733,141.27537 118.955124,143.254501 123.88993,143.254501 C128.824736,143.254501 133.292127,141.27537 136.525972,138.076281 C139.761783,134.875248 141.762701,130.45293 141.762701,125.568448 C141.762701,120.683967 139.761783,116.261649 136.525972,113.060616 C133.292127,109.861527 128.824736,107.882396 123.88993,107.882396 Z" id="45rpm-insert" stroke="#0A314F" fill="#F06600"></path>
            <path d="M124.927029,22.4751897 C181.590219,22.4751897 227.52481,68.4097812 227.52481,125.072971 C227.52481,181.736162 181.590219,227.670753 124.927029,227.670753 C68.2638384,227.670753 22.3292469,181.736162 22.3292469,125.072971 C22.3292469,68.4097812 68.2638384,22.4751897 124.927029,22.4751897 Z M125,28.8966725 C71.9235978,28.8966725 28.8966725,71.9235978 28.8966725,125 C28.8966725,178.076402 71.9235978,221.103327 125,221.103327 C178.076402,221.103327 221.103327,178.076402 221.103327,125 C221.103327,71.9235978 178.076402,28.8966725 125,28.8966725 Z" id="Outer-circle" fill="#F06600"></path>
            <path d="M125,0 C194.035594,0 250,55.9644063 250,125 C250,194.035594 194.035594,250 125,250 C55.9644063,250 0,194.035594 0,125 C0,55.9644063 55.9644063,0 125,0 Z M125,28.8966725 C71.9235978,28.8966725 28.8966725,71.9235978 28.8966725,125 C28.8966725,178.076402 71.9235978,221.103327 125,221.103327 C178.076402,221.103327 221.103327,178.076402 221.103327,125 C221.103327,71.9235978 178.076402,28.8966725 125,28.8966725 Z" id="Outer-circle---big" fill="#0A314F"></path>
        </g>
    </g>
</svg>